<mxfile host="65bd71144e" modified="2020-12-29T08:37:15.321Z" agent="5.0 (Macintosh; Intel Mac OS X 11_0_0) AppleWebKit/537.36 (KHTML, like Gecko) Code/1.52.1 Chrome/83.0.4103.122 Electron/9.3.5 Safari/537.36" version="13.10.0" etag="KMaFBBhxyVlByAz7-FbB" type="embed">
    <diagram id="wUMI2oHLhADJ-eN8biML" name="Page-1">
        <mxGraphModel dx="2218" dy="1220" grid="1" gridSize="10" guides="1" tooltips="1" connect="1" arrows="1" fold="1" page="1" pageScale="1" pageWidth="850" pageHeight="1100" math="0" shadow="0">
            <root>
                <mxCell id="0"/>
                <mxCell id="1" parent="0"/>
                <mxCell id="2" value="&lt;div style=&quot;color: rgb(238 , 255 , 255) ; background-color: rgb(38 , 50 , 56) ; font-family: &amp;#34;menlo&amp;#34; , &amp;#34;monaco&amp;#34; , &amp;#34;courier new&amp;#34; , monospace ; line-height: 18px&quot;&gt;ThemeManager:&lt;span style=&quot;color: #82aaff&quot;&gt;Spin&lt;/span&gt;&lt;/div&gt;&lt;div style=&quot;background-color: rgb(38 , 50 , 56) ; font-family: &amp;#34;menlo&amp;#34; , &amp;#34;monaco&amp;#34; , &amp;#34;courier new&amp;#34; , monospace ; line-height: 18px&quot;&gt;&lt;font color=&quot;#82aaff&quot;&gt;ctrl-&amp;gt;&lt;/font&gt;&lt;span style=&quot;color: rgb(130 , 170 , 255) ; font-family: &amp;#34;menlo&amp;#34; , &amp;#34;monaco&amp;#34; , &amp;#34;courier new&amp;#34; , monospace&quot;&gt;ProcessSpinStart&lt;/span&gt;&lt;/div&gt;&lt;div style=&quot;background-color: rgb(38 , 50 , 56) ; font-family: &amp;#34;menlo&amp;#34; , &amp;#34;monaco&amp;#34; , &amp;#34;courier new&amp;#34; , monospace ; line-height: 18px&quot;&gt;&lt;div style=&quot;color: rgb(238 , 255 , 255) ; font-family: &amp;#34;menlo&amp;#34; , &amp;#34;monaco&amp;#34; , &amp;#34;courier new&amp;#34; , monospace ; line-height: 18px&quot;&gt;&lt;span style=&quot;color: #82aaff&quot;&gt;SendSpin&lt;/span&gt;&lt;/div&gt;&lt;/div&gt;" style="rounded=0;whiteSpace=wrap;html=1;" vertex="1" parent="1">
                    <mxGeometry x="-810" y="30" width="230" height="90" as="geometry"/>
                </mxCell>
                <mxCell id="3" value="&lt;div style=&quot;color: rgb(238 , 255 , 255) ; background-color: rgb(38 , 50 , 56) ; font-family: &amp;#34;menlo&amp;#34; , &amp;#34;monaco&amp;#34; , &amp;#34;courier new&amp;#34; , monospace ; line-height: 18px&quot;&gt;BaseThemeCtrl:&lt;span style=&quot;color: #82aaff&quot;&gt;ProcessSpinStart&lt;/span&gt;&lt;/div&gt;&lt;div style=&quot;color: rgb(238 , 255 , 255) ; background-color: rgb(38 , 50 , 56) ; font-family: &amp;#34;menlo&amp;#34; , &amp;#34;monaco&amp;#34; , &amp;#34;courier new&amp;#34; , monospace ; line-height: 18px&quot;&gt;&lt;div style=&quot;font-family: &amp;#34;menlo&amp;#34; , &amp;#34;monaco&amp;#34; , &amp;#34;courier new&amp;#34; , monospace ; line-height: 18px&quot;&gt;&lt;span style=&quot;color: #82aaff&quot;&gt;ClearSpinResult&lt;/span&gt;&lt;/div&gt;&lt;div style=&quot;font-family: &amp;#34;menlo&amp;#34; , &amp;#34;monaco&amp;#34; , &amp;#34;courier new&amp;#34; , monospace ; line-height: 18px&quot;&gt;&lt;div style=&quot;line-height: 18px&quot;&gt;&lt;span style=&quot;color: #ffcb6b&quot;&gt;currentGameBoard&lt;/span&gt;:&lt;span style=&quot;color: #82aaff&quot;&gt;RestoreBehaviorStepToZero&lt;/span&gt;&lt;/div&gt;&lt;div style=&quot;line-height: 18px&quot;&gt;&lt;span style=&quot;color: #82aaff&quot;&gt;各种禁&lt;/span&gt;&lt;/div&gt;&lt;div style=&quot;line-height: 18px&quot;&gt;&lt;div style=&quot;font-family: &amp;#34;menlo&amp;#34; , &amp;#34;monaco&amp;#34; , &amp;#34;courier new&amp;#34; , monospace ; line-height: 18px&quot;&gt;self.view.currentGameBoard.&lt;span style=&quot;color: #ffcb6b&quot;&gt;baseHandler&lt;/span&gt;:&lt;span style=&quot;color: #82aaff&quot;&gt;Spin&lt;/span&gt;()&lt;/div&gt;&lt;/div&gt;&lt;/div&gt;&lt;/div&gt;" style="rounded=0;whiteSpace=wrap;html=1;" vertex="1" parent="1">
                    <mxGeometry x="-820" y="160" width="400" height="110" as="geometry"/>
                </mxCell>
                <mxCell id="5" value="&lt;div style=&quot;color: rgb(238 , 255 , 255) ; background-color: rgb(38 , 50 , 56) ; font-family: &amp;#34;menlo&amp;#34; , &amp;#34;monaco&amp;#34; , &amp;#34;courier new&amp;#34; , monospace ; line-height: 18px&quot;&gt;BoardHandler:&lt;span style=&quot;color: #82aaff&quot;&gt;Spin()&lt;/span&gt;&lt;/div&gt;&lt;div style=&quot;color: rgb(238 , 255 , 255) ; background-color: rgb(38 , 50 , 56) ; font-family: &amp;#34;menlo&amp;#34; , &amp;#34;monaco&amp;#34; , &amp;#34;courier new&amp;#34; , monospace ; line-height: 18px&quot;&gt;&lt;div style=&quot;font-family: &amp;#34;menlo&amp;#34; , &amp;#34;monaco&amp;#34; , &amp;#34;courier new&amp;#34; , monospace ; line-height: 18px&quot;&gt;&lt;div&gt;    self.board.themeView.playBgmAfterAddCoinsToFooter &lt;span style=&quot;color: #89ddff&quot;&gt;=&lt;/span&gt; &lt;span style=&quot;color: #89ddff&quot;&gt;true&lt;/span&gt;&lt;/div&gt;&lt;div&gt;    &lt;span style=&quot;color: #ffcb6b&quot;&gt;GlobalSettingManager&lt;/span&gt;:&lt;span style=&quot;color: #82aaff&quot;&gt;GetInstance&lt;/span&gt;():&lt;span style=&quot;color: #82aaff&quot;&gt;SetBackgroundMusicVolumeTo&lt;/span&gt;(&lt;span style=&quot;color: #f78c6c&quot;&gt;1&lt;/span&gt;)&lt;/div&gt;&lt;div&gt;    self.board.spinning &lt;span style=&quot;color: #89ddff&quot;&gt;=&lt;/span&gt; &lt;span style=&quot;color: #89ddff&quot;&gt;true&lt;/span&gt;&lt;/div&gt;&lt;div&gt;    self.board.spinDeltaTime &lt;span style=&quot;color: #89ddff&quot;&gt;=&lt;/span&gt; &lt;span style=&quot;color: #f78c6c&quot;&gt;0&lt;/span&gt;&lt;/div&gt;&lt;div&gt;    self.board.specialAniTime &lt;span style=&quot;color: #89ddff&quot;&gt;=&lt;/span&gt; &lt;span style=&quot;color: #f78c6c&quot;&gt;0&lt;/span&gt;&lt;/div&gt;&lt;div&gt;    self.board.quickStopReel &lt;span style=&quot;color: #89ddff&quot;&gt;=&lt;/span&gt; &lt;span style=&quot;color: #f78c6c&quot;&gt;1&lt;/span&gt;&lt;/div&gt;&lt;div&gt;    self.board.activeReels &lt;span style=&quot;color: #89ddff&quot;&gt;=&lt;/span&gt; &lt;span style=&quot;color: #89ddff&quot;&gt;-&lt;/span&gt;&lt;span style=&quot;color: #f78c6c&quot;&gt;1&lt;/span&gt;&lt;/div&gt;&lt;div&gt;    self.board.speedupReels &lt;span style=&quot;color: #89ddff&quot;&gt;=&lt;/span&gt; {}&lt;/div&gt;&lt;div&gt;    self.board.anticipationEffectList &lt;span style=&quot;color: #89ddff&quot;&gt;=&lt;/span&gt; {}&lt;/div&gt;&lt;div&gt;    self.&lt;span style=&quot;color: #ffcb6b&quot;&gt;board&lt;/span&gt;:&lt;span style=&quot;color: #82aaff&quot;&gt;ClearAllBoardEffects&lt;/span&gt;()&lt;/div&gt;&lt;br&gt;&lt;div&gt;    self:&lt;span style=&quot;color: #82aaff&quot;&gt;CustomBoardInstanceProcessor&lt;/span&gt;(&lt;span style=&quot;color: #89ddff&quot;&gt;&quot;&lt;/span&gt;&lt;span style=&quot;color: #c3e88d&quot;&gt;SpinHandler&lt;/span&gt;&lt;span style=&quot;color: #89ddff&quot;&gt;&quot;&lt;/span&gt;)&lt;/div&gt;&lt;div&gt;    self.&lt;span style=&quot;color: #ffcb6b&quot;&gt;board&lt;/span&gt;:&lt;span style=&quot;color: #82aaff&quot;&gt;WalkReels&lt;/span&gt;(SlotGameReel.Spin)&lt;/div&gt;&lt;br&gt;&lt;div&gt;    &lt;span style=&quot;color: #89ddff&quot;&gt;local&lt;/span&gt; item &lt;span style=&quot;color: #89ddff&quot;&gt;=&lt;/span&gt; &lt;span style=&quot;color: #ffcb6b&quot;&gt;CS&lt;/span&gt;.AudioController.&lt;span style=&quot;color: #82aaff&quot;&gt;GetAudioItem&lt;/span&gt;(&lt;span style=&quot;color: #89ddff&quot;&gt;&quot;&lt;/span&gt;&lt;span style=&quot;color: #c3e88d&quot;&gt;scatterdamp&lt;/span&gt;&lt;span style=&quot;color: #89ddff&quot;&gt;&quot;&lt;/span&gt;)&lt;/div&gt;&lt;div&gt;    &lt;span style=&quot;color: #89ddff ; font-style: italic&quot;&gt;if&lt;/span&gt; item &lt;span style=&quot;color: #89ddff&quot;&gt;and&lt;/span&gt; &lt;span style=&quot;color: #89ddff&quot;&gt;not&lt;/span&gt; &lt;span style=&quot;color: #ffcb6b&quot;&gt;IsNull&lt;/span&gt;(item) &lt;span style=&quot;color: #89ddff ; font-style: italic&quot;&gt;then&lt;/span&gt;&lt;/div&gt;&lt;div&gt;        &lt;span style=&quot;color: #ffcb6b&quot;&gt;item&lt;/span&gt;:&lt;span style=&quot;color: #82aaff&quot;&gt;ResetSequence&lt;/span&gt;()&lt;/div&gt;&lt;div&gt;    &lt;span style=&quot;color: #89ddff ; font-style: italic&quot;&gt;end&lt;/span&gt;&lt;/div&gt;&lt;div&gt;    &lt;span style=&quot;color: #ffcb6b&quot;&gt;CS&lt;/span&gt;.AudioController.&lt;span style=&quot;color: #82aaff&quot;&gt;Play&lt;/span&gt;(&lt;span style=&quot;color: #89ddff&quot;&gt;&quot;&lt;/span&gt;&lt;span style=&quot;color: #c3e88d&quot;&gt;spin_click&lt;/span&gt;&lt;span style=&quot;color: #89ddff&quot;&gt;&quot;&lt;/span&gt;)&lt;/div&gt;&lt;div&gt;    &lt;span style=&quot;color: #89ddff ; font-style: italic&quot;&gt;return&lt;/span&gt; &lt;span style=&quot;color: #89ddff&quot;&gt;true&lt;/span&gt;&lt;/div&gt;&lt;/div&gt;&lt;/div&gt;" style="rounded=0;whiteSpace=wrap;html=1;" vertex="1" parent="1">
                    <mxGeometry x="-850" y="290" width="460" height="400" as="geometry"/>
                </mxCell>
                <mxCell id="6" value="&lt;div style=&quot;color: rgb(238 , 255 , 255) ; background-color: rgb(38 , 50 , 56) ; font-family: &amp;#34;menlo&amp;#34; , &amp;#34;monaco&amp;#34; , &amp;#34;courier new&amp;#34; , monospace ; line-height: 18px&quot;&gt;&lt;div&gt;&lt;span style=&quot;color: #89ddff ; font-style: italic&quot;&gt;function&lt;/span&gt; SlotGameReel:&lt;span style=&quot;color: #82aaff&quot;&gt;Spin&lt;/span&gt;&lt;span style=&quot;color: #89ddff&quot;&gt;()&lt;/span&gt;&lt;/div&gt;&lt;div&gt;    &lt;span style=&quot;color: #89ddff ; font-style: italic&quot;&gt;if&lt;/span&gt; self.holding &lt;span style=&quot;color: #89ddff ; font-style: italic&quot;&gt;then&lt;/span&gt; &lt;span style=&quot;color: #89ddff ; font-style: italic&quot;&gt;return&lt;/span&gt; &lt;span style=&quot;color: #89ddff ; font-style: italic&quot;&gt;end&lt;/span&gt;&lt;/div&gt;&lt;div&gt;    self.stopOffset &lt;span style=&quot;color: #89ddff&quot;&gt;=&lt;/span&gt; &lt;span style=&quot;color: #89ddff&quot;&gt;-&lt;/span&gt;self.board.configLua.BOARD_SPIN_INFO.stopOffset&lt;/div&gt;&lt;div&gt;    self.stopInterval &lt;span style=&quot;color: #89ddff&quot;&gt;=&lt;/span&gt; self.board.configLua.BOARD_SPIN_INFO.stopInterval&lt;/div&gt;&lt;div&gt;    self.startTriggerNextReel &lt;span style=&quot;color: #89ddff&quot;&gt;=&lt;/span&gt; &lt;span style=&quot;color: #89ddff&quot;&gt;false&lt;/span&gt;&lt;/div&gt;&lt;div&gt;    self.fastStopping &lt;span style=&quot;color: #89ddff&quot;&gt;=&lt;/span&gt; &lt;span style=&quot;color: #89ddff&quot;&gt;false&lt;/span&gt;&lt;/div&gt;&lt;div&gt;    self.stopping &lt;span style=&quot;color: #89ddff&quot;&gt;=&lt;/span&gt; &lt;span style=&quot;color: #89ddff&quot;&gt;false&lt;/span&gt;&lt;/div&gt;&lt;div&gt;    self.bouncing &lt;span style=&quot;color: #89ddff&quot;&gt;=&lt;/span&gt; &lt;span style=&quot;color: #89ddff&quot;&gt;false&lt;/span&gt;&lt;/div&gt;&lt;div&gt;    self.spinning &lt;span style=&quot;color: #89ddff&quot;&gt;=&lt;/span&gt; &lt;span style=&quot;color: #89ddff&quot;&gt;true&lt;/span&gt;&lt;/div&gt;&lt;br&gt;&lt;div&gt;    self.result &lt;span style=&quot;color: #89ddff&quot;&gt;=&lt;/span&gt; {}&lt;/div&gt;&lt;div&gt;    self.resultUp &lt;span style=&quot;color: #89ddff&quot;&gt;=&lt;/span&gt; {}&lt;/div&gt;&lt;div&gt;    self.resultDown &lt;span style=&quot;color: #89ddff&quot;&gt;=&lt;/span&gt; {}&lt;/div&gt;&lt;div&gt;    self.iconResult &lt;span style=&quot;color: #89ddff&quot;&gt;=&lt;/span&gt; {}&lt;/div&gt;&lt;div&gt;    self.reelStopStart &lt;span style=&quot;color: #89ddff&quot;&gt;=&lt;/span&gt; &lt;span style=&quot;color: #89ddff&quot;&gt;true&lt;/span&gt;&lt;/div&gt;&lt;div&gt;    self:&lt;span style=&quot;color: #82aaff&quot;&gt;ActiveSymbols&lt;/span&gt;(&lt;span style=&quot;color: #89ddff&quot;&gt;true&lt;/span&gt;)&lt;/div&gt;&lt;div&gt;&lt;span style=&quot;color: #89ddff ; font-style: italic&quot;&gt;end&lt;/span&gt;&lt;/div&gt;&lt;/div&gt;" style="rounded=0;whiteSpace=wrap;html=1;" vertex="1" parent="1">
                    <mxGeometry x="-930" y="750" width="640" height="250" as="geometry"/>
                </mxCell>
            </root>
        </mxGraphModel>
    </diagram>
</mxfile>